HIERARCHY
ROOT ROOT
{
	OFFSET 0.000000 56.020000 -5.659234
	CHANNELS 6 Xposition Yposition Zposition Xrotation Yrotation Zrotation 
	JOINT C_spine0001_bind_JNT
	{
		OFFSET 0.000000 1.618999 0.000000
		CHANNELS 3 Xrotation Yrotation Zrotation
		JOINT C_spine0002_bind_JNT
		{
			OFFSET 0.000000 4.942001 0.000001
			CHANNELS 3 Xrotation Yrotation Zrotation
			JOINT C_spine0003_bind_JNT
			{
				OFFSET 0.000000 4.942001 -0.000000
				CHANNELS 3 Xrotation Yrotation Zrotation
				JOINT C_neck0001_bind_JNT
				{
					OFFSET 0.000000 17.026009 -0.000000
					CHANNELS 3 Xrotation Yrotation Zrotation
					JOINT C_neck0002_bind_JNT
					{
						OFFSET 0.000000 3.249985 0.000000
						CHANNELS 3 Xrotation Yrotation Zrotation
						JOINT C_head_bind_JNT
						{
							OFFSET 0.000000 5.278008 0.000000
							CHANNELS 3 Xrotation Yrotation Zrotation
							End Site
							{
								OFFSET 0.000000 0.000000 0.000000
							}
						}
					}
				}
				JOINT L_clavicle_bind_JNT
				{
					OFFSET 4.590000 12.067001 0.834000
					CHANNELS 3 Xrotation Yrotation Zrotation
					JOINT L_armUpper0001_bind_JNT
					{
						OFFSET 7.812635 0.512001 -3.452945
						CHANNELS 3 Xrotation Yrotation Zrotation
						JOINT L_armLower0001_bind_JNT
						{
							OFFSET 15.265892 -6.552116 -0.058157
							CHANNELS 3 Xrotation Yrotation Zrotation
							JOINT L_hand0001_bind_JNT
							{
								OFFSET 14.747667 -6.369995 5.049225
								CHANNELS 3 Xrotation Yrotation Zrotation
								End Site
								{
									OFFSET 0.000000 0.000000 0.000000
								}
							}
						}
					}
				}
				JOINT R_clavicle_bind_JNT
				{
					OFFSET -4.590000 12.067001 0.834000
					CHANNELS 3 Xrotation Yrotation Zrotation
					JOINT R_armUpper0001_bind_JNT
					{
						OFFSET -7.812635 0.512001 -3.452945
						CHANNELS 3 Xrotation Yrotation Zrotation
						JOINT R_armLower0001_bind_JNT
						{
							OFFSET -15.265890 -6.552124 -0.058160
							CHANNELS 3 Xrotation Yrotation Zrotation
							JOINT R_hand0001_bind_JNT
							{
								OFFSET -14.746784 -6.369629 5.048937
								CHANNELS 3 Xrotation Yrotation Zrotation
								End Site
								{
									OFFSET 0.000000 0.000000 0.000000
								}
							}
						}
					}
				}
			}
		}
	}
	JOINT C_pelvis0001_bind_JNT
	{
		OFFSET -0.000000 0.000000 0.000000
		CHANNELS 3 Xrotation Yrotation Zrotation
		JOINT L_legUpper0001_bind_JNT
		{
			OFFSET 6.599999 -6.027000 0.539000
			CHANNELS 3 Xrotation Yrotation Zrotation
			JOINT L_legLower0001_bind_JNT
			{
				OFFSET -0.140713 -19.187443 0.040261
				CHANNELS 3 Xrotation Yrotation Zrotation
				JOINT L_foot0001_bind_JNT
				{
					OFFSET -0.132215 -18.028637 -1.138370
					CHANNELS 3 Xrotation Yrotation Zrotation
					JOINT L_foot0002_bind_JNT
					{
						OFFSET 0.007014 -4.693133 9.886524
						CHANNELS 3 Xrotation Yrotation Zrotation
						End Site
						{
							OFFSET 0.000000 0.000000 0.000000
						}
					}
				}
			}
		}
		JOINT R_legUpper0001_bind_JNT
		{
			OFFSET -6.599999 -6.027000 0.539000
			CHANNELS 3 Xrotation Yrotation Zrotation
			JOINT R_legLower0001_bind_JNT
			{
				OFFSET 0.140710 -19.187164 0.040550
				CHANNELS 3 Xrotation Yrotation Zrotation
				JOINT R_foot0001_bind_JNT
				{
					OFFSET 0.132215 -18.028633 -1.138362
					CHANNELS 3 Xrotation Yrotation Zrotation
					JOINT R_foot0002_bind_JNT
					{
						OFFSET -0.007014 -4.693128 9.886505
						CHANNELS 3 Xrotation Yrotation Zrotation
						End Site
						{
							OFFSET 0.000000 0.000000 0.000000
						}
					}
				}
			}
		}
	}
}
MOTION
Frames: 15
Frame Time: 0.033333
0.000000 48.904842 0.000000 0.031067 -1.486830 -0.048833 7.629126 1.797209 -1.132622 -2.793465 -1.332928 0.073535 4.612761 -1.186710 0.464901 14.461653 1.570076 0.081056 0.406452 -0.336487 -0.602562 -11.026240 3.336017 0.461876 17.237247 5.481177 20.306757 -29.286009 -7.665732 -83.326683 11.574259 2.996867 -6.646874 2.746357 -13.768821 -22.072241 16.493076 1.410875 -19.110376 -27.162872 16.147930 78.258263 11.138727 4.164396 9.454381 -0.455964 15.303714 23.883999 8.984667 4.032496 -0.777677 -11.619168 0.721573 -0.449886 8.850721 0.352807 -0.942536 -6.500642 6.435970 1.670095 -0.739336 -0.182024 -0.050312 -14.071931 -0.036423 3.184509 12.424863 1.907263 1.040295 -7.514071 -3.978082 -2.736071 -0.299601 -0.749654 -1.047900 
-0.005298 49.008476 -0.046123 0.020737 -1.960522 -0.018725 8.408615 1.708683 -1.589032 -2.928538 -1.410606 0.043274 4.530745 -1.406009 0.896752 14.149596 1.920829 -0.646976 0.099845 -0.068532 -0.079280 -10.874949 3.798631 0.232742 17.631756 5.540003 19.738585 -29.055298 -7.304280 -82.468712 10.909295 1.655105 -7.024046 2.720280 -12.872875 -21.392801 17.537951 1.982096 -18.958397 -28.023205 17.286709 77.679756 9.952619 5.471947 8.659246 0.163796 14.567824 22.072058 9.801685 3.843906 -1.069585 -12.482708 1.845321 -0.221669 9.335367 -0.240682 -0.723740 -6.975230 6.000571 1.715779 -0.592920 0.740074 -0.001442 -14.999477 0.084088 3.407393 12.285658 1.066725 1.228626 -7.123164 -3.965826 -2.803869 -0.647334 -0.295746 -0.903341 
-0.131109 48.998791 -0.097998 0.009021 -2.144772 -0.033957 8.890798 1.339028 -1.799506 -3.303969 -1.116204 0.145337 4.691382 -1.230657 0.649436 13.821774 1.891484 -0.205220 0.216558 -0.001090 -0.305350 -10.799813 3.510659 0.359339 17.459324 5.296081 19.770674 -28.198898 -7.340815 -81.696602 10.543882 0.878075 -7.339440 3.404680 -12.907934 -21.291496 17.228407 1.813618 -18.537582 -27.979622 17.561798 77.973450 9.878049 6.370003 8.602324 0.990675 14.199746 21.795383 10.170997 3.321622 -1.062418 -12.444234 2.042245 -0.413109 8.610472 -0.055462 -0.704860 -6.894799 5.809447 1.911721 -0.484761 0.551429 0.016370 -14.850670 0.533936 3.515124 12.232502 0.918378 1.292810 -7.177056 -3.818568 -2.807452 -0.923087 -0.196539 -0.951798 
-0.066692 48.940418 -0.052966 0.020904 -2.321584 -0.039467 9.159628 1.416635 -1.632724 -3.075204 -1.341537 0.124050 4.539652 -1.352189 0.697389 13.939705 1.918193 -0.463071 0.072057 0.000653 -0.319058 -10.909926 4.182021 0.230124 17.571245 5.552262 19.260691 -28.357527 -7.944411 -81.826889 10.487885 1.132724 -7.296410 3.671499 -13.560101 -20.514816 17.425314 2.281057 -18.791962 -28.226864 17.870932 77.882339 10.041697 6.734331 8.406435 0.945708 13.966232 20.889162 10.350394 3.325098 -1.098761 -12.381445 2.014616 -0.226606 8.390862 0.303363 -0.880265 -6.840948 5.327806 1.846463 -0.456104 0.827732 -0.008934 -15.599876 0.235454 3.465545 12.942390 1.093765 1.309581 -7.219406 -3.618894 -2.617477 -1.027116 -0.236434 -0.919764 
-0.164991 48.968815 0.030482 0.011838 -2.382831 -0.023863 9.701578 1.225338 -1.397312 -3.279110 -1.327043 0.060215 4.630379 -1.271636 0.477338 14.058504 1.840978 -0.513228 0.054336 0.072583 -0.245974 -10.383042 3.916002 0.132452 17.521919 5.377681 19.207277 -28.640890 -8.507951 -81.354225 9.897835 0.892736 -7.571337 4.208867 -13.550021 -20.129793 17.116941 2.264667 -18.533913 -28.124897 18.257580 77.743271 10.497979 7.182076 8.527785 0.839327 13.727431 19.992735 10.779573 3.178385 -0.855982 -12.331954 1.812827 -0.300827 8.372714 0.409156 -0.825571 -7.095085 5.696786 1.287010 -0.735707 0.566101 0.180181 -16.194258 0.189879 3.595814 13.461555 1.436092 1.087735 -7.462675 -3.988330 -2.740255 -1.011540 -0.224016 -0.955136 
-0.261671 48.953415 0.084160 0.008860 -2.394026 -0.028313 9.988187 1.010589 -1.212679 -3.361676 -1.298178 0.005278 4.576770 -1.321872 0.453055 14.105454 1.980040 -0.496644 0.138201 -0.113114 -0.297315 -10.399639 3.975892 0.096342 17.651724 5.368319 19.170980 -29.065691 -8.700812 -81.030846 9.751804 1.049417 -7.382223 4.288101 -13.771875 -20.299109 17.089108 2.273816 -18.536837 -28.234425 18.264980 77.894974 10.799302 7.097512 8.308582 0.983158 13.697107 19.876736 10.763936 2.972422 -0.696430 -12.188439 1.715986 -0.132258 8.625830 0.568133 -1.018798 -6.966554 5.659297 1.088173 -1.101728 0.618548 0.208023 -16.227873 -0.083763 3.615171 13.804884 1.593782 0.871572 -7.602176 -3.774306 -2.688136 -1.099580 -0.291485 -1.000372 
-0.360337 48.942169 0.225577 0.012003 -2.460887 -0.028121 10.097156 0.948479 -1.039218 -3.097441 -1.342591 -0.068649 4.753648 -1.277120 0.552591 14.211292 1.748598 -0.654649 -0.057470 -0.025427 -0.209141 -10.497766 4.017494 0.007434 17.491959 5.204351 19.118769 -29.448915 -8.815714 -80.719574 9.576012 1.294540 -7.289598 4.257881 -13.729702 -19.731911 16.833883 1.870717 -18.268311 -28.370899 18.741894 77.725906 11.014481 6.867911 8.142707 0.833306 13.746127 19.861286 10.926628 3.033198 -0.578231 -12.499784 1.330442 -0.106239 9.320797 0.880589 -1.226992 -7.207021 5.710577 1.053672 -1.281712 0.718510 0.291348 -16.689976 -0.726757 3.684009 14.085591 2.001625 0.610499 -7.646539 -3.726851 -2.926178 -1.044015 -0.225856 -0.789834 
-0.487592 48.928295 0.374665 0.016802 -2.573352 -0.031194 10.310411 0.955570 -0.893457 -2.973551 -1.321808 -0.044002 4.843284 -1.396702 0.531699 14.047405 1.807362 -0.675682 0.044660 -0.143318 -0.315140 -10.720794 4.022042 0.023791 17.455334 5.419483 19.098820 -30.082119 -8.908277 -80.676804 9.684566 1.451498 -6.842474 4.401857 -13.542957 -19.574923 16.829346 1.818116 -18.271442 -28.483858 18.714075 77.617012 11.369893 6.406360 8.068166 0.841268 13.588549 20.027885 10.996797 3.049457 -0.464295 -12.801463 1.287038 -0.080435 10.317018 0.941230 -1.201921 -7.532520 5.773735 0.787615 -1.519851 0.586865 0.088412 -16.515860 -0.819355 3.795698 13.900116 1.812430 0.579445 -7.754907 -3.700287 -3.019934 -1.115687 -0.308730 -0.994343 
-0.604138 48.919975 0.532060 0.013141 -2.782429 -0.033856 10.716807 1.012129 -0.854160 -2.858435 -1.372973 0.015517 4.966075 -1.260542 0.552617 13.888551 1.807266 -0.778472 0.016711 -0.167225 -0.277479 -10.878531 3.920154 -0.155568 17.451416 5.410521 18.914482 -30.391314 -8.991604 -80.228371 9.242131 1.588790 -6.689917 4.567560 -13.465793 -19.150339 16.936680 1.373461 -18.248461 -28.537184 18.841499 77.391258 11.223445 5.953273 7.986981 0.968381 13.591403 20.248297 11.141463 3.181975 -0.488794 -13.718964 1.301361 0.423241 12.195690 0.754235 -1.520166 -7.965673 5.900530 0.626312 -1.891755 0.552247 0.066498 -16.414196 -1.200800 3.966817 14.210909 1.833894 0.554766 -8.319505 -3.578723 -3.302922 -1.116598 -0.124221 -1.022335 
-0.774815 48.878475 0.677130 0.022366 -2.902891 -0.034476 10.939903 1.201229 -0.868023 -2.834700 -1.391240 0.060920 5.136279 -1.284254 0.531347 13.892508 1.827981 -0.686076 -0.037232 -0.233038 -0.424415 -10.973186 3.911048 -0.049083 17.408094 5.563829 19.061438 -30.479816 -9.067446 -80.140793 8.868013 1.420127 -6.514361 4.688286 -13.361148 -18.742496 16.882559 1.309954 -17.997084 -28.582983 18.887077 77.034416 10.971910 5.248183 8.043774 0.828431 13.347340 20.259922 11.104794 3.426172 -0.608696 -14.345506 1.214879 0.805916 14.579683 0.446074 -1.531230 -8.578346 5.986350 0.284327 -2.896466 0.573150 0.121133 -16.470324 -1.616986 4.128298 14.538488 1.853044 0.508588 -8.575086 -3.809530 -3.374043 -1.069884 -0.005270 -1.059008 
-0.973008 48.821064 0.684756 0.018338 -3.130545 -0.028484 11.428449 1.567927 -0.913813 -2.643387 -1.511700 0.160549 5.375332 -1.173820 0.563573 13.512010 1.807751 -0.773212 -0.085788 -0.191155 -0.251844 -11.396335 3.853242 -0.011494 17.133862 5.576475 18.915201 -30.770308 -8.974994 -79.883064 8.592048 0.981178 -6.565368 4.814322 -13.007587 -18.227465 16.876314 1.382038 -17.880613 -28.670729 18.823587 76.673370 10.591665 4.513725 7.750745 0.733051 13.360107 20.081047 11.267206 3.788558 -0.643366 -15.751488 1.068050 1.210255 18.370827 0.117144 -1.819390 -9.626671 6.421041 0.114805 -4.185036 0.513037 0.047069 -17.047544 -2.256689 4.231216 15.411535 1.912804 0.540033 -8.847864 -3.873771 -3.676470 -1.219495 -0.053521 -1.091548 
-1.158347 48.743793 0.751287 0.017683 -3.288152 -0.026781 12.232461 1.847965 -1.001889 -2.693309 -1.425666 0.145864 5.742330 -1.055137 0.735831 13.116747 1.763429 -0.742373 -0.022421 -0.291790 -0.245117 -12.081785 3.816585 0.106178 16.878172 5.462251 18.829687 -30.792847 -9.163451 -79.323746 8.108878 0.165370 -6.510674 4.564144 -12.942818 -18.146759 16.577063 1.313161 -17.544197 -28.792538 18.965696 76.129616 10.495482 4.139784 7.414769 0.677553 13.105844 20.287081 11.643421 4.168889 -0.775298 -18.057043 0.904379 1.832019 22.649000 -0.052041 -2.040865 -10.251143 6.225851 -0.123547 -5.883073 0.830802 0.078356 -17.775766 -3.083588 4.495457 16.617323 2.201981 0.395317 -9.590280 -4.050786 -3.905434 -1.248080 -0.029856 -1.167395 
-1.300592 48.576832 0.819237 0.021403 -3.557087 -0.029370 12.919853 2.551497 -1.066051 -2.469715 -1.492774 0.340397 6.092983 -1.051142 0.746914 12.740657 1.720187 -0.722427 -0.024640 -0.302705 -0.167829 -13.056463 3.576161 0.166802 16.805323 5.465054 18.645025 -31.144419 -9.349145 -78.916817 7.677359 -0.723291 -6.523862 4.457046 -12.701112 -17.510740 16.397232 1.410097 -17.303867 -29.092039 19.408823 75.802826 10.476486 3.781292 6.746933 0.590398 12.957673 20.163486 11.978203 4.806127 -0.930447 -20.839050 0.530559 2.096248 27.719795 0.226609 -2.481229 -10.968644 5.979091 -0.359472 -7.666947 0.973574 0.046318 -18.748425 -4.036584 4.449194 18.142422 2.620678 0.549728 -10.211753 -4.150393 -4.269437 -1.480869 -0.047309 -1.096917 
-1.428732 48.439518 0.922317 0.013506 -3.786769 -0.035211 13.705036 3.131725 -1.025349 -2.224680 -1.440111 0.377385 6.522937 -0.984357 0.812134 12.303254 1.538590 -0.710590 -0.057649 -0.255594 -0.214075 -13.755510 3.541390 0.371912 16.687361 5.563831 18.448248 -31.442596 -9.706336 -78.602226 7.170794 -1.733154 -6.205030 4.563227 -12.919099 -17.165876 16.121746 1.430351 -17.046818 -29.455496 19.738749 75.189453 10.548340 3.725601 6.219309 0.442904 12.831748 19.832870 12.307622 5.308643 -1.140149 -24.047781 0.583006 2.686855 32.856621 0.329815 -2.922942 -10.887176 5.544555 -0.794899 -9.460983 1.318295 -0.305214 -19.523651 -4.826570 4.596297 19.474873 3.131356 0.444341 -10.757722 -4.231046 -4.532927 -1.679558 -0.180107 -1.087292 
-1.524889 48.258038 1.044758 0.011926 -3.723325 -0.032595 14.517722 3.737081 -1.007071 -2.108734 -1.482382 0.379827 6.822336 -0.901825 0.747697 12.088201 1.516453 -0.498767 0.055334 -0.330931 -0.102445 -14.435086 3.292016 0.427772 16.540182 5.778618 18.330601 -31.736677 -10.085219 -78.239838 6.825939 -2.598368 -5.909570 4.609602 -12.851643 -16.779819 15.862760 1.472687 -16.729757 -30.242874 20.525393 75.002907 10.540603 3.193424 5.571492 0.213434 12.671065 19.787060 12.751194 5.768740 -1.130463 -27.559385 0.512706 2.817934 37.704700 0.365554 -3.150418 -9.410239 5.099586 -1.173687 -11.116319 1.396527 -0.611101 -20.445509 -5.914419 4.091188 20.901468 3.594158 0.441717 -11.478803 -4.083017 -4.639564 -1.906142 -0.257772 -1.035803 
